<svg aria-hidden="true" style="position: absolute; width: 0; height: 0; overflow: hidden;" version="1.1"
    xmlns="http://www.w3.org/2000/svg" xmlns:xlink="http://www.w3.org/1999/xlink">
    <defs>
        <symbol id="c-menu-turn-off">
            <svg xmlns="http://www.w3.org/2000/svg" width="20" height="20" viewBox="0 0 100 100">
                <g stroke="null" id="svg_1" fill='var(--st0-color, currentColor)'>
                    <path stroke="null" id="svg_2"
                        d="m42.49842,1l-37.67619,0c-2.18413,0 -3.82222,1.63095 -3.82222,3.80556l0,37.51191c0,2.1746 1.6381,3.80556 3.82222,3.80556l37.67619,0c2.18413,0 3.82222,-1.63095 3.82222,-3.80556l0,-37.51191c0,-2.1746 -1.6381,-3.80556 -3.82222,-3.80556z"
                        class="st0"></path>
                    <path stroke="null" id="svg_3"
                        d="m95.4635,1l-37.67619,0c-2.18413,0 -3.82222,1.63095 -3.82222,3.80556l0,37.51191c0,2.1746 1.6381,3.80556 3.82222,3.80556l37.67619,0c2.18413,0 3.82222,-1.63095 3.82222,-3.80556l0,-37.51191c0,-2.1746 -1.6381,-3.80556 -3.82222,-3.80556z"
                        class="st0"></path>
                    <path stroke="null" id="svg_4"
                        d="m42.49842,53.73413l-37.67619,0c-2.18413,0 -3.82222,1.63095 -3.82222,3.80556l0,37.51191c0,2.1746 1.6381,3.80556 3.82222,3.80556l37.67619,0c2.18413,0 3.82222,-1.63095 3.82222,-3.80556l0,-37.51191c0,-2.1746 -1.6381,-3.80556 -3.82222,-3.80556z"
                        class="st0"></path>
                    <path stroke="null" id="svg_5"
                        d="m95.4635,53.73413l-37.67619,0c-2.18413,0 -3.82222,1.63095 -3.82222,3.80556l0,37.51191c0,2.1746 1.6381,3.80556 3.82222,3.80556l37.67619,0c2.18413,0 3.82222,-1.63095 3.82222,-3.80556l0,-37.51191c0,-2.1746 -1.6381,-3.80556 -3.82222,-3.80556z"
                        class="st0"></path>
                </g>
            </svg>
        </symbol>
        <symbol id="c-menu-turn-on">
            <svg xmlns="http://www.w3.org/2000/svg" width="20" height="20" viewBox="0 0 100 100">
                <g stroke="null" id="svg_1" fill='var(--st0-color, currentColor)'>
                    <path stroke="null"
                        d="m94.17308,1l-88.26923,0c-2.72436,0 -4.90385,2.40661 -4.90385,5.41487c0,3.00826 2.17949,5.41487 4.90385,5.41487l88.26923,0c2.72436,0 4.90385,-2.40661 4.90385,-5.41487c0,-3.00826 -2.17949,-5.41487 -4.90385,-5.41487z"
                        id="svg_2" class="st0"></path>
                    <path stroke="null"
                        d="m94.17308,44.31893l-88.26923,0c-2.72436,0 -4.90385,2.40661 -4.90385,5.41487s2.17949,5.41487 4.90385,5.41487l88.26923,0c2.72436,0 4.90385,-2.40661 4.90385,-5.41487s-2.17949,-5.41487 -4.90385,-5.41487z"
                        id="svg_3" class="st0"></path>
                    <path stroke="null"
                        d="m94.17308,88.23951l-88.26923,0c-2.72436,0 -4.90385,2.40661 -4.90385,5.41487s2.17949,5.41487 4.90385,5.41487l88.26923,0c2.72436,0 4.90385,-2.40661 4.90385,-5.41487s-2.17949,-5.41487 -4.90385,-5.41487z"
                        id="svg_4" class="st0"></path>
                </g>
            </svg>
        </symbol>
        <symbol id="c-admin">
            <svg xmlns="http://www.w3.org/2000/svg" width="20" height="20" viewBox="0 0 100 100">
                <g stroke="null" id="svg_1" fill='var(--st0-color, currentColor)'>
                    <g stroke="null" id="svg_2">
                        <path stroke="null" id="svg_3"
                            d="m49.66676,99.33352c-27.48228,0 -49.66676,-22.18449 -49.66676,-49.66676s22.18449,-49.66676 49.66676,-49.66676s49.66676,22.18449 49.66676,49.66676s-22.18449,49.66676 -49.66676,49.66676zm0,-93.70462c-24.17116,0 -44.03786,19.8667 -44.03786,44.03786s19.86671,44.03786 44.03786,44.03786s44.03786,-19.8667 44.03786,-44.03786s-19.86671,-44.03786 -44.03786,-44.03786z"
                            class="st0"></path>
                    </g>
                    <g stroke="null" id="svg_4">
                        <path stroke="null" id="svg_5"
                            d="m28.47561,83.10905c-0.99334,0 -1.65556,-0.33111 -2.31778,-0.66222c-1.32445,-0.99334 -1.98667,-2.64889 -1.65556,-4.63556l3.31112,-18.87337c0,-0.99334 -0.33111,-2.31778 -0.99334,-2.98001l-13.57558,-13.24447c-1.32445,-1.32445 -1.98667,-3.31112 -1.32445,-4.96668c0.66222,-1.65556 1.98667,-2.64889 3.97334,-2.98001l18.87337,-2.64889c0.99334,0 1.98667,-0.99334 2.64889,-1.65556l8.60891,-17.21781c0.33111,-1.98667 1.98667,-3.31112 3.64223,-3.31112s3.31112,0.99334 3.97334,2.98001l8.60891,17.21781c0.33111,0.66222 1.65556,1.65556 2.64889,1.65556l18.87337,2.64889c1.98667,0.33111 3.64223,1.32445 3.97334,2.98001c0.66222,1.65556 0,3.31112 -1.32445,4.96668l-13.57558,13.24447c-0.66222,0.66222 -0.99334,1.98667 -0.99334,2.98001l3.31112,18.87337c0.33111,1.98667 -0.33111,3.64223 -1.65556,4.63556c-1.32445,0.99334 -3.31112,0.99334 -4.96668,0l-16.8867,-8.94002c-0.66222,-0.33111 -2.31778,-0.33111 -2.98001,0l-16.8867,8.94002c-1.32445,0.99334 -2.31778,0.99334 -3.31112,0.99334zm21.19115,-15.89336c1.65556,0 2.98001,0.33111 4.30445,0.99334l14.56892,7.61557l-2.64889,-16.22447c-0.33111,-2.64889 0.66222,-6.29112 2.64889,-8.27779l11.58891,-11.58891l-16.22448,-2.31778c-2.64889,-0.33111 -5.6289,-2.64889 -6.95335,-4.96668l-7.28446,-14.56892l-7.28446,14.56892c-1.32445,2.64889 -4.30445,4.63556 -6.95335,4.96668l-16.22448,2.31778l11.58891,11.58891c1.98667,1.98667 2.98001,5.6289 2.64889,8.27779l-2.64889,16.22447l14.56892,-7.61557c1.32445,-0.66222 2.64889,-0.99334 4.30445,-0.99334z"
                            class="st0"></path>
                    </g>
                </g>
            </svg>
        </symbol>
        <symbol id="c-pw">
            <svg xmlns="http://www.w3.org/2000/svg" width="20" height="20" viewBox="0 0 100 100">
                <g stroke="null" id="svg_1" fill='var(--st0-color, currentColor)'>
                    <g stroke="null" id="svg_2">
                        <g stroke="null" id="svg_3">
                            <path stroke="null" id="svg_4"
                                d="m68.6,40.26l-4.24667,0l0,-8.58c0,-6.27 -4.9,-11.22 -11.10667,-11.22l-8.82,0c-6.20667,0 -11.10667,4.95 -11.10667,11.22l0,8.58l-3.92,0c-1.30667,0 -1.96,0.99 -1.96,1.98l0,20.79c0,8.58 6.86,15.51 15.35333,15.51l12.74,0c8.49333,0 15.35333,-6.93 15.35333,-15.51l0,-20.79c0,-0.99 -0.98,-1.98 -2.28667,-1.98zm-31.36,-8.58c0,-4.62 3.59333,-6.93 7.18667,-6.93l8.82,0c3.92,0 6.86,2.31 6.86,6.93l0,8.58l-22.86667,0l0,-8.58zm29.07333,31.35c0,6.27 -4.9,11.55 -11.10667,11.55l-12.74,0c-6.20667,0 -11.43333,-5.28 -11.43333,-11.55l0,-18.48l35.28,0l0,18.48l0,0z"
                                class="st0"></path>
                            <path stroke="null" id="svg_5"
                                d="m47.04,67.32c0,1.32 0.98,1.98 1.96,1.98c1.30667,0 1.96,-0.99 1.96,-1.98l0,-5.94c0.32667,-0.33 0.32667,-0.66 0.32667,-1.32c0,-1.32 -0.98,-1.98 -1.96,-1.98l-0.65333,0c-1.30667,0 -1.96,0.99 -1.96,1.98c0,0.33 0,0.99 0.32667,1.32c0,0 0,5.94 0,5.94z"
                                class="st0"></path>
                        </g>
                    </g>
                    <path stroke="null" id="svg_6"
                        d="m94.40667,75.9l-5.22667,1.65c5.55333,-7.92 8.82,-17.49 8.82,-28.05c0,-27.39 -21.88667,-49.5 -49,-49.5s-49,22.11 -49,49.5s21.88667,49.5 49,49.5c0.32667,0 0.65333,0 0.98,-0.33c0.98,-0.33 1.63333,-1.32 1.63333,-2.64c0,-0.99 -0.65333,-1.98 -1.63333,-2.64c-0.32667,0 -0.65333,-0.33 -0.98,-0.33l0,0l0,0c-23.84667,0 -43.44667,-19.8 -43.44667,-43.89s19.6,-43.89 43.44667,-43.89s43.44667,19.8 43.44667,43.89c0,9.57 -3.26667,18.48 -8.49333,25.74l-0.32667,-4.95c0,-1.65 -1.30667,-2.64 -2.94,-2.64s-2.61333,1.32 -2.61333,2.97l0.98,12.54c0,0.99 0.65333,1.65 1.63333,2.31l0,0c0.32667,0 0.65333,0.33 0.65333,0.33l0.32667,0c0,0 0,0 0.32667,0c0,0 0,0 0.32667,0l0.32667,0l13.06667,-4.29c1.30667,-0.33 2.28667,-1.98 1.63333,-3.63c0,-1.32 -1.63333,-1.98 -2.94,-1.65z"
                        class="st0"></path>
                </g>
            </svg>
        </symbol>
        <symbol id="c-log-out">
            <svg xmlns="http://www.w3.org/2000/svg" width="20" height="20" viewBox="0 0 100 100">
                <g stroke="null" id="svg_1" fill='var(--st0-color, currentColor)'>
                    <path stroke="null" id="svg_2"
                        d="m97.48768,45.66667c0,0 0,0 0,0c0,0 0,0 0,0c0.32714,-0.33333 0.32714,-0.33333 0.32714,-0.33333c0,0 0,0 0,0c0,0 0,0 0,-0.33333c0,0 0,0 0,0c0,0 0,0 0,-0.33333c0,0 0,0 0,0c0,0 0,-0.33333 0,-0.33333c0,0 0,0 0,0c0.32714,-1 0,-2 -0.98142,-3l-15.04843,-15.33333c-1.30856,-1.33333 -3.2714,-1.33333 -4.25282,0c-1.30856,1.33333 -1.30856,3.33333 0,4.33333l10.14134,10.33333l-31.40543,0c-1.6357,0 -2.94426,1.33333 -2.94426,3c0,1.66667 1.30856,3 2.94426,3l31.40543,0l-10.14134,10.33333c-1.30856,1.33333 -1.30856,3.33333 0,4.33333c0.65428,0.66667 1.30856,1 2.28998,1c0.65428,0 1.6357,-0.33333 2.28998,-1l15.37557,-15.66667c-0.32714,0.33333 0,0 0,0z"
                        class="st0"></path>
                    <path stroke="null" id="svg_3"
                        d="m62.48372,54c-1.6357,0 -2.94426,1.33333 -2.94426,3l0,18.66667c0,3 -2.28998,5.33333 -5.23424,5.33333l-13.41274,0l0,-64.33333c0,-3.66667 -2.28998,-6.66667 -5.56138,-8l-7.19708,-2.33333l26.17119,0c2.94426,0 5.23424,2.33333 5.23424,5.33333l0,18.66667c0,1.66667 1.30856,3 2.94426,3c1.6357,0 2.94426,-1.33333 2.94426,-3l0,-19c0,-6.33333 -4.9071,-11.33333 -11.12276,-11.33333l-46.12672,0c-4.57996,0 -8.1785,3.66667 -8.1785,8.33333l0,75c0,3.66667 2.28998,6.66667 5.56138,8l24.53549,8.33333c0.98142,0.33333 1.6357,0.33333 2.61712,0.33333c4.57996,0 8.1785,-3.66667 8.1785,-8.33333l0,-4l13.41274,0c6.21566,0 11.12276,-5 11.12276,-11.33333l0,-18.66667c0,-2 -1.30856,-3.66667 -2.94426,-3.66667zm-27.80689,37.66667c0,1 -0.98142,2 -1.96284,2c-0.32714,0 -0.65428,0 -0.65428,0l-24.53549,-8.33333c-0.98142,-0.33333 -1.30856,-1 -1.30856,-2l0,-75c0,-1 0.98142,-2 1.96284,-2c0.32714,0 0.32714,0 0.65428,0l24.53549,8.33333c0.98142,0.33333 1.30856,1 1.30856,2l0,75z"
                        class="st0"></path>
                </g>
            </svg>
        </symbol>
        <symbol id="c-arrow-margin">
            <svg xmlns="http://www.w3.org/2000/svg" width="15" height="15" viewBox="0 0 100 100">
                <g stroke="null" id="svg_1" fill='var(--st0-color, currentColor)'>
                    <path stroke="null"
                        d="m77.42335,45.65455l-44.18182,-44.18182c-1.96364,-1.96364 -4.90909,-1.96364 -6.87273,0s-1.96364,4.90909 0,6.87273l40.74546,40.74546l-40.74546,40.74546c-1.96364,1.96364 -1.96364,4.90909 0,6.87273s4.90909,1.96364 6.87273,0l44.18182,-44.18182c1.96364,-1.96364 1.96364,-4.90909 0,-6.87273z"
                        id="Chevron_Right_1_" class="st0"></path>
                </g>
            </svg>
        </symbol>
    </defs>
</svg>